<svg height="35" viewBox="0 0 29 35" width="29" xmlns="http://www.w3.org/2000/svg"><path d="m446.318 179.962h-2.831a.479.479 0 0 1 -.48-.475v-.554a.479.479 0 0 1 .48-.476h2.831a.479.479 0 0 1 .479.476v.554a.479.479 0 0 1 -.479.475zm0 7.527h-2.831a.479.479 0 0 1 -.48-.476v-.554a.48.48 0 0 1 .48-.476h2.831a.48.48 0 0 1 .479.476v.554a.479.479 0 0 1 -.479.476zm0 7.527h-2.831a.479.479 0 0 1 -.48-.476v-.553a.479.479 0 0 1 .48-.476h2.831a.478.478 0 0 1 .479.476v.553a.479.479 0 0 1 -.479.476zm0 7.527h-2.831a.479.479 0 0 1 -.48-.476v-.552a.479.479 0 0 1 .48-.477h2.831a.479.479 0 0 1 .479.477v.552a.479.479 0 0 1 -.479.476zm23.982 5.457h-24.26a1.7 1.7 0 0 1 -1.705-1.695v-31.612a1.7 1.7 0 0 1 1.705-1.693h24.26a1.7 1.7 0 0 1 1.7 1.693v31.613a1.7 1.7 0 0 1 -1.7 1.694zm-24.26-33.871a.567.567 0 0 0 -.568.564v31.613a.567.567 0 0 0 .568.565h24.26a.567.567 0 0 0 .569-.565v-31.613a.567.567 0 0 0 -.569-.564zm7.932 25.78h-1.137v-18.818h1.137zm-.569-8.844c-4.308 0-4.359-2.347-4.359-2.447v-7.527h1.137v7.526c.03.446.741 1.319 3.222 1.319s3.193-.873 3.223-1.334l.023-.188c.05-.73.013-4.8-.024-7.315l1.137-.015c.079 5.352.063 6.975 0 7.533 0 .1-.049 2.448-4.362 2.448zm10.829 0a3.442 3.442 0 0 1 -2.707-1.582 6.067 6.067 0 0 1 -.759-5.43c1.173-3.448 3.006-3.551 3.466-3.529.454-.032 2.293.08 3.467 3.529a6.068 6.068 0 0 1 -.759 5.429 3.443 3.443 0 0 1 -2.708 1.583zm-.117-9.418c-.151 0-1.357.078-2.272 2.769a4.987 4.987 0 0 0 .606 4.408 2.031 2.031 0 0 0 3.567 0 4.99 4.99 0 0 0 .6-4.408c-.982-2.887-2.3-2.774-2.305-2.766l-.083.008-.1-.011h-.015zm.686 18.262h-1.137v-9.409h1.136v9.409z" fill="#e4002b" fill-rule="evenodd" transform="translate(-443 -173)"/></svg>