<svg id="レイヤー_1" xmlns="http://www.w3.org/2000/svg" viewBox="0 0 25.6 25.7"><style>.st0{fill:#333}</style><path class="st0" d="M12.8 25.6C5.8 25.6 0 19.9 0 12.8S5.8 0 12.8 0s12.8 5.8 12.8 12.8-5.8 12.8-12.8 12.8zm0-24.6C6.3 1 1 6.3 1 12.8s5.3 11.8 11.8 11.8 11.8-5.3 11.8-11.8S19.3 1 12.8 1z"/><path class="st0" d="M12.8 25.6c-.1 0-.2 0-.3-.1-.3-.2-6.6-4.4-6.6-12.7 0-8.3 6-12.5 6.2-12.7.1-.1.3-.1.5-.1.3-.1.7.1.7.5V25c0 .2-.1.4-.3.4 0 .1-.1.2-.2.2zm-.5-24.3c-1.3 1.1-5.4 5-5.4 11.5 0 6.1 3.7 9.9 5.4 11.2V1.3z"/><path class="st0" d="M12.8 25.6c-.2 0-.3-.1-.4-.2-.2-.2-.1-.5.1-.7.1 0 6.1-4.1 6.1-11.8 0-7.8-5.7-11.8-5.8-11.8-.2-.2-.3-.5-.1-.7.2-.2.5-.3.7-.1.3.2 6.2 4.4 6.2 12.7S13.3 25.5 13 25.7c0-.2-.1-.1-.2-.1z"/><path class="st0" d="M12.8 15C4.7 15 .5 12.3.3 12.2l.5-.8s4.2 2.7 12 2.7v.9z"/><path class="st0" d="M12.6 15v-1c7.7 0 11.9-2.6 12-2.7l.5.8c-.2.2-4.5 2.9-12.5 2.9z"/></svg>